<svg width="20" height="20" viewBox="0 0 20 20" fill="none" xmlns="http://www.w3.org/2000/svg">
<path fill-rule="evenodd" clip-rule="evenodd" d="M4.90552 17.5C4.64627 17.5 4.44996 17.2657 4.49527 17.0105L5.00005 14.1667H2.16263C1.90378 14.1667 1.70758 13.9332 1.7522 13.6782L1.89803 12.8448C1.93292 12.6455 2.10606 12.5 2.30847 12.5H5.29172L6.17505 7.5H3.33763C3.07878 7.5 2.88258 7.26647 2.9272 7.01151L3.07303 6.17817C3.10792 5.9788 3.28106 5.83333 3.48347 5.83333H6.46672L6.99735 2.84385C7.03266 2.64493 7.20557 2.5 7.4076 2.5H8.22791C8.48712 2.5 8.68346 2.73422 8.63812 2.98948L8.13338 5.83333H13.1334L13.664 2.84385C13.6993 2.64493 13.8722 2.5 14.0743 2.5H14.8945C15.1538 2.5 15.3501 2.73422 15.3048 2.98948L14.8 5.83333H17.6375C17.8963 5.83333 18.0925 6.06686 18.0479 6.32183L17.902 7.15516C17.8672 7.35453 17.694 7.5 17.4916 7.5H14.5084L13.625 12.5H16.4625C16.7213 12.5 16.9175 12.7335 16.8729 12.9885L16.727 13.8218C16.6922 14.0212 16.519 14.1667 16.3166 14.1667H13.3334L12.8027 17.1562C12.7675 17.3551 12.5945 17.5 12.3925 17.5H11.5722C11.313 17.5 11.1166 17.2657 11.162 17.0105L11.6667 14.1667H6.66672L6.13608 17.1562C6.10077 17.3551 5.92785 17.5 5.72582 17.5H4.90552ZM7.84208 7.5L6.95875 12.5H11.9587L12.842 7.5H7.84208Z" fill="#72767D"/>
</svg>
