<svg width="20" height="20" viewBox="0 0 20 20" fill="none" xmlns="http://www.w3.org/2000/svg">
<path fill-rule="evenodd" clip-rule="evenodd" d="M2.80118 7.60398C2.80118 4.94647 4.94641 2.80124 7.60392 2.80124C10.2614 2.80124 12.4067 4.94647 12.4067 7.60398C12.4067 10.2615 10.2614 12.4067 7.60392 12.4067C4.94641 12.4067 2.80118 10.2615 2.80118 7.60398ZM14.0076 12.4067H13.1644L12.8656 12.1186C13.9115 10.9019 14.5412 9.3223 14.5412 7.60398C14.5412 3.77246 11.4354 0.666687 7.60392 0.666687C3.7724 0.666687 0.666626 3.77246 0.666626 7.60398C0.666626 11.4355 3.7724 14.5413 7.60392 14.5413C9.32224 14.5413 10.9018 13.9116 12.1185 12.8657L12.4067 13.1645V14.0076L17.7431 19.3334L19.3333 17.7431L14.2803 12.68L14.0076 12.4067Z" fill="#43B581"/>
</svg>
