<svg width="17" height="17" viewBox="0 0 17 17" fill="none" xmlns="http://www.w3.org/2000/svg">
<path fill-rule="evenodd" clip-rule="evenodd" d="M10.8716 8.63878C12.0304 9.03862 13.0924 9.69913 13.9846 10.5914C15.5319 12.1387 16.384 14.1958 16.384 16.384H15.104C15.104 12.5727 12.0033 9.472 8.192 9.472C4.3807 9.472 1.28 12.5727 1.28 16.384H0C0 14.1958 0.852128 12.1387 2.39939 10.5914C3.29165 9.69913 4.35366 9.03862 5.51238 8.63878C4.27133 7.78403 3.456 6.35354 3.456 4.736C3.456 2.12458 5.58058 0 8.192 0C10.8034 0 12.928 2.12458 12.928 4.736C12.928 6.35354 12.1127 7.78403 10.8716 8.63878ZM4.736 4.736C4.736 6.64166 6.28637 8.192 8.192 8.192C10.0976 8.192 11.648 6.64166 11.648 4.736C11.648 2.83034 10.0976 1.28 8.192 1.28C6.28637 1.28 4.736 2.83034 4.736 4.736Z" fill="#222222"/>
</svg>
