<?xml version="1.0" encoding="UTF-8" standalone="no"?>
<!-- Created with Inkscape (http://www.inkscape.org/) -->

<svg
   xmlns:dc="http://purl.org/dc/elements/1.1/"
   xmlns:cc="http://creativecommons.org/ns#"
   xmlns:rdf="http://www.w3.org/1999/02/22-rdf-syntax-ns#"
   xmlns:svg="http://www.w3.org/2000/svg"
   xmlns="http://www.w3.org/2000/svg"
   xmlns:xlink="http://www.w3.org/1999/xlink"
   xmlns:sodipodi="http://sodipodi.sourceforge.net/DTD/sodipodi-0.dtd"
   xmlns:inkscape="http://www.inkscape.org/namespaces/inkscape"
   version="1.1"
   id="svg227"
   width="800"
   height="960">
  <metadata
     id="metadata233">
    <rdf:RDF>
      <cc:Work
         rdf:about="">
        <dc:format>image/svg+xml</dc:format>
        <dc:type
           rdf:resource="http://purl.org/dc/dcmitype/StillImage" />
      </cc:Work>
    </rdf:RDF>
  </metadata>
  <defs
     id="defs231">
    <linearGradient
       gradientUnits="userSpaceOnUse"
       y2="768.56427"
       x2="180.52936"
       y1="122.68985"
       x1="786.09143"
       id="linear-gradient-2"
       gradientTransform="scale(0.91287093,1.0954451)">
      <stop
         id="stop10"
         stop-color="#242348"
         offset="0" />
      <stop
         id="stop12"
         stop-color="#5a55aa"
         offset="1" />
    </linearGradient>
    <clipPath
       id="clip-path-2">
      <rect
         transform="translate(-25,58)"
         height="960"
         width="800"
         data-name="Rectangle 179"
         id="Rectangle_179"
         x="0"
         y="0"
         style="fill:url(#linear-gradient)" />
    </clipPath>
    <linearGradient
       gradientUnits="objectBoundingBox"
       y2="1"
       x2="0.5"
       x1="0.5"
       id="linear-gradient-3">
      <stop
         id="stop17"
         stop-color="#a7a7ff"
         offset="0" />
      <stop
         id="stop19"
         stop-opacity="0"
         stop-color="#fff"
         offset="1" />
    </linearGradient>
    <linearGradient
       gradientUnits="objectBoundingBox"
       y2="1"
       x2="0.5"
       x1="0.5"
       id="linearGradient247">
      <stop
         id="stop243"
         stop-color="#a7a7ff"
         offset="0" />
      <stop
         id="stop245"
         stop-opacity="0"
         stop-color="#fff"
         offset="1" />
    </linearGradient>
    <linearGradient
       gradientUnits="objectBoundingBox"
       y2="1"
       x2="0.5"
       x1="0.5"
       id="linear-gradient-5">
      <stop
         id="stop22"
         stop-color="#54d8ff"
         offset="0" />
      <stop
         id="stop24"
         stop-opacity="0"
         stop-color="#fff"
         offset="1" />
    </linearGradient>
    <linearGradient
       gradientUnits="objectBoundingBox"
       y2="1"
       x2="0.5"
       x1="0.5"
       id="linearGradient256">
      <stop
         id="stop252"
         stop-color="#54d8ff"
         offset="0" />
      <stop
         id="stop254"
         stop-opacity="0"
         stop-color="#fff"
         offset="1" />
    </linearGradient>
    <linearGradient
       inkscape:collect="always"
       xlink:href="#linear-gradient-3"
       id="linearGradient294"
       gradientUnits="userSpaceOnUse"
       x1="752.68961"
       x2="752.68961"
       y2="1875.032"
       gradientTransform="scale(2.2156716,0.45133042)"
       y1="667.53089" />
    <linearGradient
       inkscape:collect="always"
       xlink:href="#linear-gradient-3"
       id="linearGradient296"
       gradientUnits="userSpaceOnUse"
       x1="752.68961"
       x2="752.68961"
       y2="1875.032"
       gradientTransform="scale(2.2156716,0.45133042)"
       y1="667.53089" />
    <linearGradient
       inkscape:collect="always"
       xlink:href="#linear-gradient-5"
       id="linearGradient298"
       gradientUnits="userSpaceOnUse"
       x1="656.45593"
       x2="656.45593"
       y2="1953.5175"
       gradientTransform="scale(2.5404737,0.39362738)"
       y1="900.39975" />
    <linearGradient
       inkscape:collect="always"
       xlink:href="#linear-gradient-5"
       id="linearGradient300"
       gradientUnits="userSpaceOnUse"
       x1="656.45593"
       x2="656.45593"
       y2="1953.5175"
       gradientTransform="scale(2.5404737,0.39362738)"
       y1="900.39975" />
  </defs>
  <sodipodi:namedview
     pagecolor="#ffffff"
     bordercolor="#666666"
     borderopacity="1"
     objecttolerance="10"
     gridtolerance="10"
     guidetolerance="10"
     inkscape:pageopacity="0"
     inkscape:pageshadow="2"
     inkscape:window-width="640"
     inkscape:window-height="480"
     id="namedview229" />
  <inkscape:clipboard
     style="font-variant-east_asian:normal;opacity:1;vector-effect:none;fill:#000000;fill-opacity:1;stroke-width:1;stroke-linecap:butt;stroke-linejoin:miter;stroke-miterlimit:4;stroke-dasharray:none;stroke-dashoffset:0;stroke-opacity:1"
     min="0,0"
     max="800,960" />
  <g
     data-name="Group 244"
     id="Group_244"
     style="display:inline">
    <rect
       style="fill:url(#linear-gradient-2)"
       y="0"
       x="0"
       height="960"
       width="800"
       data-name="Rectangle 176"
       id="Rectangle_176" />
    <g
       clip-path="url(#clip-path-2)"
       transform="translate(25,-58)"
       data-name="Group 4"
       id="Group_4">
      <g
         style="opacity:0.20100002"
         transform="translate(-585.529,331.726)"
         data-name="Products Sold Graph"
         id="Products_Sold_Graph">
        <path
           style="opacity:0.7;fill:url(#linearGradient294)"
           inkscape:connector-curvature="0"
           transform="translate(-317.723,-288.325)"
           d="M 330,764.877 V 546.706 c 0,0 308.5,143.1 555,152.089 266.539,-8.71 312.693,-69.952 520.308,-152.089 177.416,-68.461 354.346,-87.251 524.168,-82.413 169.822,4.838 317.013,78.793 517.612,86.372 353.879,-30.534 534.429,-184.911 558.338,-249.388 v 544.74 L 330,846.259 Z"
           id="Filled.Graph" />
        <path
           style="fill:none;stroke:#a3a0fb;stroke-width:2"
           inkscape:connector-curvature="0"
           transform="translate(-298.268,-234.833)"
           d="m 313,493.785 c 0,0 306.512,146.515 548.863,149.667 242.351,3.152 335.438,-75.606 521.062,-149.472 185.624,-73.866 362.09,-86.472 524.554,-83.989 162.464,2.483 320.4,79.889 520.019,84 199.619,4.111 522.561,-133.8 558.472,-248.748"
           id="Line.Graph" />
        <g
           style="fill:#ffffff;stroke:#a4a1fb;stroke-width:2"
           transform="translate(1072.897,247.907)"
           id="Mar.Ellipse">
          <circle
             style="stroke:none"
             id="circle89"
             r="12.259"
             cy="12.259"
             cx="12.259" />
          <circle
             style="fill:none"
             id="circle91"
             r="11.259"
             cy="12.259"
             cx="12.259" />
        </g>
        <g
           style="fill:#ffffff;stroke:#a4a1fb;stroke-width:2"
           transform="translate(718.407,383.633)"
           id="Feb.Ellipse">
          <circle
             style="stroke:none"
             id="circle94"
             r="12.259"
             cy="12.259"
             cx="12.259" />
          <circle
             style="fill:none"
             id="circle96"
             r="11.259"
             cy="12.259"
             cx="12.259" />
        </g>
      </g>
      <g
         style="opacity:0.20100002"
         transform="translate(-712.529,564.726)"
         data-name="Products Sold Graph"
         id="Products_Sold_Graph-2">
        <path
           style="opacity:0.7;fill:url(#linearGradient296)"
           inkscape:connector-curvature="0"
           transform="translate(-317.723,-288.325)"
           d="M 330,764.877 V 546.706 c 0,0 308.5,143.1 555,152.089 266.539,-8.71 312.693,-69.952 520.308,-152.089 177.416,-68.461 354.346,-87.251 524.168,-82.413 169.822,4.838 317.013,78.793 517.612,86.372 353.879,-30.534 534.429,-184.911 558.338,-249.388 v 544.74 L 330,846.259 Z"
           data-name="Filled.Graph"
           id="Filled.Graph-2" />
        <path
           style="fill:none;stroke:#a3a0fb;stroke-width:2"
           inkscape:connector-curvature="0"
           transform="translate(-298.268,-234.833)"
           d="m 313,493.785 c 0,0 306.512,146.515 548.863,149.667 242.351,3.152 335.438,-75.606 521.062,-149.472 185.624,-73.866 362.09,-86.472 524.554,-83.989 162.464,2.483 320.4,79.889 520.019,84 199.619,4.111 522.561,-133.8 558.472,-248.748"
           data-name="Line.Graph"
           id="Line.Graph-2" />
        <g
           style="fill:#ffffff;stroke:#a4a1fb;stroke-width:2"
           transform="translate(1072.897,247.907)"
           data-name="Mar.Ellipse"
           id="Mar.Ellipse-2">
          <circle
             style="stroke:none"
             id="circle102"
             r="12.259"
             cy="12.259"
             cx="12.259" />
          <circle
             style="fill:none"
             id="circle104"
             r="11.259"
             cy="12.259"
             cx="12.259" />
        </g>
      </g>
      <g
         style="opacity:0.20100002"
         transform="translate(-743.926,354.582)"
         data-name="Total Views Graph"
         id="Total_Views_Graph">
        <path
           style="opacity:0.7;fill:url(#linearGradient298)"
           inkscape:connector-curvature="0"
           transform="translate(-313.715,-344.568)"
           d="M 330,687.576 V 354.422 c 0,0 301.107,331.225 548.452,343.69 275.977,-2.807 278.239,-171.952 520.751,-264.548 203.024,-72.706 357.942,125.622 527.763,130.459 169.821,4.837 287.023,-135.926 518.71,-145.705 300.179,14.727 541.051,202.792 559.742,212.9 V 768.716 L 330,768.958 Z"
           data-name="Filled.Graph"
           id="Filled.Graph-3" />
        <path
           style="fill:none;stroke:#54d8ff;stroke-width:2"
           inkscape:connector-curvature="0"
           transform="translate(-298.327,-266.489)"
           d="m 312.953,279.164 c 0,0 310.478,337.329 553.129,340.484 242.651,3.155 325.629,-198.754 520.459,-266.824 194.83,-68.07 363.846,129.84 526.511,132.324 162.665,2.484 318.406,-148.686 518.271,-144.577 199.865,4.109 428.377,118.459 554.707,208.663"
           data-name="Line.Graph"
           id="Line.Graph-3" />
        <g
           style="fill:#ffffff;stroke:#55d8fe;stroke-width:2"
           transform="translate(2114.927,61.363)"
           id="May.Ellipse">
          <circle
             style="stroke:none"
             id="circle110"
             r="12.259"
             cy="12.259"
             cx="12.259" />
          <circle
             style="fill:none"
             id="circle112"
             r="11.259"
             cy="12.259"
             cx="12.259" />
        </g>
        <g
           style="fill:#ffffff;stroke:#55d8fe;stroke-width:2"
           transform="translate(1155.767,60.537)"
           data-name="Mar.Ellipse"
           id="Mar.Ellipse-3">
          <circle
             style="stroke:none"
             id="circle115"
             r="12.259"
             cy="12.259"
             cx="12.259" />
          <circle
             style="fill:none"
             id="circle117"
             r="11.259"
             cy="12.259"
             cx="12.259" />
        </g>
      </g>
      <g
         style="opacity:0.20100002"
         transform="translate(-1046.649,464.919)"
         data-name="Total Views Graph"
         id="Total_Views_Graph-2">
        <path
           style="opacity:0.7;fill:url(#linearGradient300)"
           inkscape:connector-curvature="0"
           transform="translate(-314.715,-344.568)"
           d="M 330,687.576 V 354.422 c 0,0 301.107,331.225 548.452,343.69 275.977,-2.807 278.239,-171.952 520.751,-264.548 203.024,-72.706 357.942,125.622 527.763,130.459 169.821,4.837 287.023,-135.926 518.71,-145.705 300.179,14.727 541.051,202.792 559.742,212.9 V 768.716 L 330,768.958 Z"
           data-name="Filled.Graph"
           id="Filled.Graph-4" />
        <path
           style="fill:none;stroke:#54d8ff;stroke-width:2"
           inkscape:connector-curvature="0"
           transform="translate(-298.327,-266.489)"
           d="m 312.953,279.164 c 0,0 310.478,337.329 553.129,340.484 242.651,3.155 325.629,-198.754 520.459,-266.824 194.83,-68.07 363.846,129.84 526.511,132.324 162.665,2.484 318.406,-148.686 518.271,-144.577 199.865,4.109 428.377,118.459 554.707,208.663"
           data-name="Line.Graph"
           id="Line.Graph-4" />
        <g
           style="fill:#ffffff;stroke:#55d8fe;stroke-width:2"
           transform="translate(1701.637,192.18)"
           id="Apr.Ellipse">
          <circle
             style="stroke:none"
             id="circle123"
             r="12.259"
             cy="12.259"
             cx="12.259" />
          <circle
             style="fill:none"
             id="circle125"
             r="11.259"
             cy="12.259"
             cx="12.259" />
        </g>
        <g
           style="fill:#ffffff;stroke:#55d8fe;stroke-width:2"
           transform="translate(1073.43,73.636)"
           data-name="Mar.Ellipse"
           id="Mar.Ellipse-4">
          <circle
             style="stroke:none"
             id="circle128"
             r="12.259"
             cy="12.259"
             cx="12.259" />
          <circle
             style="fill:none"
             id="circle130"
             r="11.259"
             cy="12.259"
             cx="12.259" />
        </g>
      </g>
    </g>
  </g>
</svg>
